<?xml version="1.0" standalone="no"?>
<!DOCTYPE svg PUBLIC "-//W3C//DTD SVG 20010904//EN"
 "http://www.w3.org/TR/2001/REC-SVG-20010904/DTD/svg10.dtd">
<svg version="1.0" xmlns="http://www.w3.org/2000/svg"
 width="80.000000pt" height="80.000000pt" viewBox="0 0 80.000000 80.000000"
 preserveAspectRatio="xMidYMid meet">

<g transform="translate(0.000000,80.000000) scale(0.100000,-0.100000)"
fill="#000000" stroke="none">
<path d="M486 768 c-19 -27 -20 -62 -4 -124 11 -41 11 -47 -6 -59 -28 -21 -49
-8 -43 29 3 17 2 39 -1 49 -6 13 -12 6 -27 -33 l-19 -50 -47 0 -47 0 -35 -82
c-19 -46 -55 -131 -80 -190 l-46 -108 50 0 c47 0 50 2 66 35 l17 35 78 0 c76
0 79 -1 89 -27 6 -15 26 -47 45 -70 39 -47 41 -76 7 -81 -17 -3 -26 5 -39 35
-15 37 -16 37 -27 15 -22 -47 32 -102 88 -88 17 4 31 18 40 39 12 29 12 36 -6
66 -17 29 -18 35 -5 45 13 9 8 27 -35 124 -27 62 -49 117 -49 123 0 5 11 14
24 19 13 5 28 19 32 32 3 13 15 34 25 47 26 33 24 78 -7 145 -14 32 -24 66
-21 77 7 25 2 24 -17 -3z m-117 -365 l21 -53 -50 0 -49 0 16 38 c20 49 34 74
38 70 2 -1 13 -27 24 -55z"/>
<path d="M587 588 c-4 -14 -20 -42 -37 -63 -17 -21 -29 -40 -27 -41 5 -6 71
20 79 31 10 14 10 67 -1 83 -6 10 -10 8 -14 -10z"/>
</g>
</svg>
